<?xml version="1.0" encoding="UTF-8"?>
<svg width="48" height="48" viewBox="0 0 48 48" fill="none" xmlns="http://www.w3.org/2000/svg">
  <rect width="48" height="48" rx="24" fill="#232F3E"/>
  <path d="M37.3223 31.0429C36.8759 31.3429 31.7152 33.8571 31.7152 33.8571C31.2688 34.1571 30.8223 33.8571 30.9687 33.4071L32.4348 29.3571C32.4348 29.0571 32.2884 28.7571 31.9884 28.6071L27.8241 26.2429C27.3777 25.9429 27.3777 25.3429 27.8241 25.0429L31.9884 22.6786C32.2884 22.5286 32.4348 22.2286 32.4348 21.9286L30.9687 17.8786C30.8223 17.4286 31.2688 17.1286 31.7152 17.4286C31.7152 17.4286 36.8759 19.9429 37.3223 20.2429C37.7688 20.5429 37.7688 21.1429 37.3223 21.4429L33.1581 23.8071C32.8581 23.9571 32.7116 24.2571 32.7116 24.5571V26.7429C32.7116 27.0429 32.8581 27.3429 33.1581 27.4929L37.3223 29.8571C37.7688 30.1571 37.7688 30.7571 37.3223 31.0429Z" fill="#FF9900"/>
  <path d="M24.0004 35.9999C18.4777 35.9999 14.0004 31.5225 14.0004 25.9999C14.0004 20.4772 18.4777 15.9999 24.0004 15.9999C25.4732 15.9999 26.8732 16.2999 28.1277 16.8454L26.9459 19.9999C26.0732 19.6999 25.0732 19.4999 24.0004 19.4999C20.4095 19.4999 17.5004 22.409 17.5004 25.9999C17.5004 29.5908 20.4095 32.4999 24.0004 32.4999C25.0732 32.4999 26.0732 32.2999 26.9459 31.9999L28.1277 35.1544C26.8732 35.6999 25.4732 35.9999 24.0004 35.9999Z" fill="#FF9900"/>
</svg>
